Patient4_TMGait_0pt3_01_right_02_EMG.mot
version=1
nRows=20
nColumns=33
inDegrees=no
endheader
time	1LAddLong	2LGlutMax	3LGlutMed	4LIliopsoas	5LSemiMemb	6LBicFemLong	7LRecFem	8LVastMed	9LVastLat	10LGasMed	11LTibAnt	12lTibPost	13LPeroneusLong	14LSol	15LExtDigLong	16LFlexDigLong	17RAddLong	18RGlutMax	19RGlutMed	20RIliopsoas	21RSemiMemb	22RBicFemLong	23RRecFem	24RVastMed	25RVastLat	26RGasMed	27RTibAnt	28RTibPost	29RPeroneusLong	30RSol	31RExtDigLong	32RFlexDigLong
2.772	0.006409	0.00412	0.048218	0.002289	0.009003	0.011444	0.066528	0.015717	0.033875	-0.026855	0.006714	0.000458	-0.019531	-0.27222	0.01236	0.010834	-0.057068	0.31784	0.33997	-0.056763	0.11704	0.002441	-0.074921	0.06073	0.06134	0.015717	0.06958	-0.018005	-0.51392	0.016022	0.003204	-0.002747
2.773	0.015106	0.028076	0.011902	0.001526	0.008545	0.005646	0.061035	0.010529	0.039673	-0.038452	0.00473	0.003052	-0.02243	-0.096893	0.014496	0.011139	-0.054169	0.30441	0.39719	-0.082092	0.031586	-0.065918	-0.091095	-0.15595	0.13718	0.059357	0.063629	-0.015869	-0.50736	0.036926	0.000458	-0.007629
2.774	0.005188	0.039215	0.053711	-0.007629	0.011749	0.021667	0.064697	0.00885	0.04303	-0.040588	0.00473	-0.000916	-0.022583	-0.096283	0.031128	0.003662	-0.010529	0.27664	0.49698	-0.15427	-0.18341	-0.023956	-0.038757	-0.1033	0.038147	0.023499	-0.000305	-0.027008	-0.006866	-0.007019	0.000305	-0.006561
2.775	0.006561	0.027771	0.068665	-0.001221	0.019989	-0.005341	0.069275	0.006409	0.042572	-0.031433	0.005035	0.006104	-0.020294	-0.093536	0.018616	0.010223	0.02594	0.25314	0.43289	-0.14771	-0.28534	0.067139	0.073853	-0.013885	-0.084229	0.009918	-0.005493	-0.032349	0.08255	0.062714	-0.000458	-0.009003
2.776	0.006256	0.029144	0.059967	0.000153	0.023346	0.000458	0.071564	0.012512	0.028229	-0.030975	0.002747	0.009613	-0.027008	-0.020447	0.023346	0.00946	0.03479	0.25711	0.26657	-0.066071	-0.11826	0.062561	-0.019989	0.13199	-0.037994	0.019989	-0.051117	0.016327	0.24612	0.005493	0.003967	-0.010223
2.777	-0.000916	0.031433	0.045471	-0.001526	0.000763	0.008087	0.073547	0.008698	0.039825	-0.027618	0.003357	0.003967	-0.065155	0.1239	0.010376	0.002136	0.010071	0.29266	0.31097	0	0.15518	0.001984	0.018616	0.23178	-0.019379	0.029449	-0.059967	0.046387	0.29312	-0.035095	0.002136	-0.014954
2.778	0.007477	0.028992	0.046082	0.00412	-0.000763	-0.006409	0.057831	0.011749	0.034485	-0.029907	-0.002594	0.003204	0.050201	0.078583	0.017242	0.001373	-0.017242	0.28458	0.2861	0.050201	0.18021	0.002899	0.067444	0.13718	-0.046082	0.01358	-0.055847	0.024109	0.19684	-0.020599	0.002899	-0.00824
2.779	0.004272	0.032043	0.047607	0.017548	0.00061	0.006866	0.063782	0.00351	0.041504	-0.027771	-0.005951	0.005493	0.063171	0.13077	0.023956	0.00412	-0.03952	0.13733	0.11215	0.087128	0.26321	-0.032349	0.095367	0.11551	-0.001678	0.011902	-0.028076	-0.019073	0.20371	0.092926	-0.00351	-0.006866
2.78	0.005035	0.040436	0.050049	0.018921	0.016174	0.005493	0.05249	0.010223	0.061188	-0.017548	0.005493	0.004425	-0.041809	0.10849	0.014191	-0.001068	-0.035858	0.062866	0.20248	0.20325	0.16632	-0.10986	-0.051727	0.11078	0.085602	-0.009766	0.011292	-0.015717	0.089417	0.19302	-0.000153	-0.011139
2.781	0.006104	0.01358	0.053253	0.004578	0.015869	0.038757	0.056763	0.010223	0.058746	-0.0177	0.011292	0.003967	-0.067596	0.061951	0.001068	0.010986	-0.010529	-0.015869	0.12802	0.18707	0.079803	-0.16144	-0.011139	0.11643	0.074463	-0.007324	0.058289	0.000153	-0.13519	0.10803	0.001678	-0.016327
2.782	0.006561	0.028992	0.056305	-0.002289	0.018158	0.02243	0.055695	0.007477	0.054932	-0.020905	-0.00412	-0.002747	0.005341	0.062866	-0.022888	-0.001221	0.001831	-0.086365	0.031891	0.13809	0.068054	-0.15198	0.019989	0.027771	0.047913	-0.009766	0.061035	-0.00885	-0.014648	0.077057	0.001831	-0.007629
2.783	0.00885	0.045929	0.079041	-0.004883	0.01358	0.006409	0.062408	0.001678	0.053711	-0.013885	-0.010529	0.001068	0.015259	0.07843	-0.026703	0.001678	0.024414	-0.11993	-0.050812	0.081329	0.005188	-0.12085	0.048065	0.036621	0.0177	-0.012207	0.073547	-0.009613	0.3154	0.043182	0.002289	-0.001984
2.784	0.003052	0.05722	0.018463	-0.001221	0.010986	-0.010071	0.048676	-0.000763	0.053864	-0.012817	0.009613	0.002594	0.003204	0.080109	-0.013885	0.006561	0.020142	-0.22308	-0.15488	0.042725	0.006256	-0.074463	0.001221	0.055695	0.023193	-0.004578	0.032196	-0.009766	0.22903	-0.046539	0.001526	-0.007019
2.785	-0.010834	0.042114	0.001221	0.015564	0.008087	0.027161	0.071106	0.001526	0.037231	0.001526	0.001984	0.000305	-0.038757	0.078583	0.00412	0.007782	0.012665	-0.32364	-0.14908	0.024872	0.060883	-0.069885	-0.026093	0.077515	0.06424	0.015411	0.076141	-0.002899	-0.64865	-0.042419	0	-0.003357
2.786	-0.002136	0.03891	0.008087	0.033722	0.012665	0.009766	0.082245	0.002136	0.040588	-0.004578	0.005951	0.001984	-0.083771	0.084381	0.010834	-0.007629	-0.007477	-0.36514	-0.094299	-0.009766	0.10773	-0.025177	0.027618	0.1387	0.099182	0.023193	0.040131	0.000458	-0.18021	-0.049744	0.001831	-0.00061
2.787	0.005188	0.059967	0.02533	0.008698	0.01709	0.003052	0.076294	0.01297	0.047455	-0.008392	0.006561	0.002289	-0.00061	0.068512	0.006714	-0.003052	-0.010071	-0.42007	-0.007782	-0.039825	-0.079498	0.000916	-0.007629	0.076599	0.10193	0.013733	0.00351	-0.000763	-0.14923	-0.033569	0.001678	-0.002747
2.788	0.004272	0.058136	0.012817	0.00885	0.00885	0.02182	0.079193	0.005341	0.054474	0.010681	0.001678	0.002899	0.048218	-0.001984	0.003815	-0.003815	-0.020752	-0.38422	-0.041809	-0.01297	-0.14526	0.18616	-0.031433	0.12131	0.10544	0.012054	0.096588	-0.016632	0.52277	-0.043945	0.003967	-0.002899
2.789	0.011749	0.062714	0.008698	0.007629	0.012665	0.016632	0.070343	0	0.052795	0.003357	0.003357	-0.001678	0.064697	0.013885	0.018311	0.001526	-0.017548	-0.35416	-0.053101	-0.032043	0.08728	0.047913	-0.037231	0.021667	0.10574	-0.002747	0.12802	-0.014038	0.46143	-0.10468	0.001831	-0.006561
2.79	-0.000458	0.070801	0.029755	0.00885	0.014496	0.000153	0.06546	0.006256	0.043182	0.004425	0.006714	-0.009003	0.10117	0.028534	0.021667	0.000153	-0.006256	-0.38238	-0.058594	-0.006866	0.082855	-0.045471	-0.056152	0.034027	0.069885	-0.006714	0.007019	-0.015411	-0.46921	-0.15457	0.001831	-0.002136
2.791	-0.002899	0.071411	0.058136	-0.00412	0.015106	-0.015564	0.081787	0.006104	0.050659	-0.004272	0.012665	-0.006866	0.092316	0.02182	0.036011	0.005646	0.008087	-0.41458	0.2153	-0.039063	-0.005341	-0.081482	-0.081024	0.018005	0.075073	-0.005798	0.010529	-0.00824	-0.2504	-0.13809	0.001373	-0.013275
